# Blender3D v249 OBJ File: funbox.blend
# www.blender3d.org
mtllib box.mtl
v 0.366667 1.183333 -0.366667
v -0.366667 1.183334 -0.366667
v 0.366667 1.183333 0.366667
v -0.366667 1.183333 0.366667
v 0.387500 0.812500 -0.387500
v -0.387500 0.812500 -0.387500
v 0.387500 0.812500 0.387500
v -0.387500 0.812500 0.387500
v -0.812500 -0.387500 0.387500
v -0.812500 0.387500 0.387500
v -0.812500 -0.387500 -0.387500
v -0.812500 0.387500 -0.387500
v -1.183333 -0.366667 0.366667
v -1.183333 0.366667 0.366667
v -1.183333 -0.366667 -0.366667
v -1.183333 0.366667 -0.366667
v 1.183333 -0.366667 -0.366667
v 1.183333 0.366667 -0.366667
v 1.183333 -0.366667 0.366667
v 1.183333 0.366667 0.366667
v 0.812500 -0.387500 -0.387500
v 0.812500 0.387500 -0.387500
v 0.812500 -0.387500 0.387500
v 0.812500 0.387500 0.387500
v 0.387500 -0.812500 0.387500
v -0.387500 -0.812500 0.387500
v 0.387500 -0.812500 -0.387500
v -0.387500 -0.812500 -0.387500
v 0.366667 -1.183333 0.366667
v -0.366667 -1.183333 0.366667
v 0.366667 -1.183334 -0.366667
v -0.366667 -1.183333 -0.366667
v -0.366667 0.366667 -1.183333
v 0.366667 0.366667 -1.183334
v -0.366667 -0.366667 -1.183333
v 0.366667 -0.366667 -1.183333
v -0.387500 0.387500 -0.812500
v 0.387500 0.387500 -0.812500
v -0.387500 -0.387500 -0.812500
v 0.387500 -0.387500 -0.812500
v 0.387500 0.387500 0.812500
v -0.387500 0.387500 0.812500
v 0.387500 -0.387500 0.812500
v -0.387500 -0.387500 0.812500
v 0.366667 0.366667 1.183333
v -0.366667 0.366667 1.183333
v 0.366667 -0.366667 1.183334
v -0.366667 -0.366667 1.183333
v 0.937500 0.937500 -0.937500
v 0.937500 -0.937500 -0.937500
v -0.937500 -0.937500 -0.937500
v -0.937500 0.937500 -0.937500
v 0.937500 0.937500 0.937500
v 0.937500 -0.937500 0.937500
v -0.937501 -0.937499 0.937500
v -0.937500 0.937500 0.937500
v 0.000000 1.187500 -0.375000
v 0.375000 1.187500 0.000000
v -0.375000 1.187500 0.000000
v 0.000000 1.187500 0.375000
v 0.375000 1.000000 -0.375000
v -0.375000 1.000000 -0.375000
v 0.375000 1.000000 0.375000
v -0.375000 1.000000 0.375000
v 0.000000 0.812500 -0.412500
v -0.000000 0.812500 0.412500
v 0.412500 0.812500 0.000000
v -0.412500 0.812500 0.000000
v -0.812500 -0.412500 0.000000
v -0.812500 0.412500 0.000000
v -0.812500 -0.000000 0.412500
v -0.812500 -0.000000 -0.412500
v -1.000000 -0.375000 0.375000
v -1.000000 0.375000 0.375000
v -1.000000 -0.375000 -0.375000
v -1.000000 0.375000 -0.375000
v -1.187500 0.000000 0.375000
v -1.187500 -0.375000 0.000000
v -1.187500 0.375000 0.000000
v -1.187500 0.000000 -0.375000
v 1.187500 -0.000000 -0.375000
v 1.187500 -0.375000 0.000000
v 1.187500 0.375000 0.000000
v 1.187500 -0.000000 0.375000
v 1.000000 -0.375000 -0.375000
v 1.000000 0.375000 -0.375000
v 1.000000 -0.375000 0.375000
v 1.000000 0.375000 0.375000
v 0.812500 0.000000 -0.412500
v 0.812500 0.000000 0.412500
v 0.812500 -0.412500 0.000000
v 0.812500 0.412500 0.000000
v 0.412500 -0.812500 0.000000
v -0.412500 -0.812500 0.000000
v 0.000000 -0.812500 0.412500
v -0.000000 -0.812500 -0.412500
v 0.375000 -1.000000 0.375000
v -0.375000 -1.000000 0.375000
v 0.375000 -1.000000 -0.375000
v -0.375000 -1.000000 -0.375000
v -0.000000 -1.187500 0.375000
v 0.375000 -1.187500 0.000000
v -0.375000 -1.187500 0.000000
v -0.000000 -1.187500 -0.375000
v -0.000000 0.375000 -1.187500
v -0.375000 0.000000 -1.187500
v 0.375000 0.000000 -1.187500
v -0.000000 -0.375000 -1.187500
v -0.375000 0.375000 -1.000000
v 0.375000 0.375000 -1.000000
v -0.375000 -0.375000 -1.000000
v 0.375000 -0.375000 -1.000000
v -0.000000 0.412500 -0.812500
v 0.000000 -0.412500 -0.812500
v -0.412500 0.000000 -0.812500
v 0.412500 -0.000000 -0.812500
v 0.412500 -0.000000 0.812500
v -0.412500 0.000000 0.812500
v 0.000000 0.412500 0.812500
v -0.000000 -0.412500 0.812500
v 0.375000 0.375000 1.000000
v -0.375000 0.375000 1.000000
v 0.375000 -0.375000 1.000000
v -0.375000 -0.375000 1.000000
v -0.000000 0.375000 1.187500
v 0.375000 0.000000 1.187500
v -0.375000 0.000000 1.187500
v -0.000000 -0.375000 1.187500
v -0.000000 -0.984375 -0.984375
v 0.984375 -0.000000 -0.984375
v 0.000000 0.984375 -0.984375
v -0.984375 0.000000 -0.984375
v 0.984375 -0.000000 0.984375
v -0.000001 -0.984375 0.984375
v -0.984375 0.000001 0.984375
v 0.000000 0.984375 0.984375
v 0.984375 -0.984375 0.000000
v 0.984375 0.984375 0.000000
v -0.984375 -0.984375 0.000000
v -0.703125 -0.703125 1.000000
v -0.703125 0.703125 1.000000
v 0.703125 -0.703125 1.000000
v 0.703125 0.703125 1.000000
v 1.000000 0.703125 0.703125
v 1.000000 -0.703125 0.703125
v 1.000000 0.703125 -0.703125
v 1.000000 -0.703125 -0.703125
v 0.703125 -1.000000 0.703125
v -0.703125 -1.000000 0.703125
v 0.703125 -1.000000 -0.703125
v -0.703125 -1.000000 -0.703125
v -1.000000 -0.703125 0.703125
v -1.000000 0.703125 0.703125
v -1.000000 -0.703125 -0.703125
v -1.000000 0.703125 -0.703125
v -0.984375 0.984375 0.000000
v -0.703125 1.000000 -0.703125
v -0.703125 1.000000 0.703125
v 0.703125 1.000000 0.703125
v 0.703125 1.000000 -0.703125
v 0.703125 0.703125 -1.000000
v -0.703125 0.703125 -1.000000
v 0.703125 -0.703125 -1.000000
v -0.703125 -0.703125 -1.000000
v 0.000000 1.200000 0.000000
v 0.000000 1.000000 -0.400000
v 0.000000 1.000000 0.400000
v 0.400000 1.000000 0.000000
v -0.400000 1.000000 0.000000
v -1.000000 -0.400000 0.000000
v -1.000000 0.400000 0.000000
v -1.000000 -0.000000 0.400000
v -1.000000 0.000000 -0.400000
v -1.200000 0.000000 0.000000
v 1.200000 -0.000000 0.000000
v 1.000000 0.000000 -0.400000
v 1.000000 0.000000 0.400000
v 1.000000 -0.400000 0.000000
v 1.000000 0.400000 0.000000
v 0.400000 -1.000000 0.000000
v -0.400000 -1.000000 0.000000
v -0.000000 -1.000000 0.400000
v -0.000000 -1.000000 -0.400000
v -0.000000 -1.200000 0.000000
v -0.000000 0.000000 -1.200000
v -0.000000 0.400000 -1.000000
v -0.000000 -0.400000 -1.000000
v -0.400000 0.000000 -1.000000
v 0.400000 0.000000 -1.000000
v 0.400000 0.000000 1.000000
v -0.400000 0.000000 1.000000
v -0.000000 0.400000 1.000000
v -0.000000 -0.400000 1.000000
v -0.000000 0.000000 1.200000
v -0.750000 0.000000 1.000000
v -0.000000 -0.750000 1.000000
v 0.750000 -0.000000 1.000000
v 0.000000 0.750000 1.000000
v 1.000000 -0.000000 0.750000
v 1.000000 0.750000 0.000000
v 1.000000 0.000000 -0.750000
v 1.000000 -0.750000 0.000000
v -0.000000 -1.000000 0.750000
v 0.750000 -1.000000 0.000000
v -0.000000 -1.000000 -0.750000
v -0.750000 -1.000000 0.000000
v -1.000000 0.000000 0.750000
v -1.000000 -0.750000 0.000000
v -1.000000 0.000000 -0.750000
v -1.000000 0.750000 0.000000
v -0.750000 1.000000 0.000000
v 0.000000 1.000000 0.750000
v 0.750000 1.000000 0.000000
v 0.000000 1.000000 -0.750000
v 0.000000 0.750000 -1.000000
v 0.750000 -0.000000 -1.000000
v 0.000000 -0.750000 -1.000000
v -0.750000 0.000000 -1.000000
vn 0.682424 0.730918 0.000000
vn 0.556108 0.617603 -0.556108
vn 0.000000 0.730918 -0.682424
vn 0.000000 1.000000 0.000000
vn 0.556108 0.617603 0.556108
vn 0.000000 0.730918 0.682424
vn -0.556108 0.617603 -0.556108
vn -0.682424 0.730918 0.000000
vn -0.556108 0.617603 0.556108
vn 0.703085 0.106388 -0.703085
vn 0.266793 0.926054 -0.266793
vn 0.000000 0.879543 -0.475784
vn 0.000000 0.079623 -0.996796
vn -0.266793 0.926054 -0.266793
vn -0.703085 0.106388 -0.703085
vn -0.703085 0.106388 0.703085
vn -0.266793 0.926054 0.266793
vn 0.000000 0.879543 0.475784
vn 0.000000 0.079623 0.996796
vn 0.266793 0.926054 0.266793
vn 0.703085 0.106388 0.703085
vn 0.996796 0.079623 0.000000
vn 0.475784 0.879543 0.000000
vn -0.996796 0.079623 0.000000
vn -0.475784 0.879543 0.000000
vn -0.106388 -0.703085 0.703085
vn -0.617603 -0.556108 0.556108
vn -0.730918 -0.682424 0.000000
vn -0.079623 -0.996796 0.000000
vn -0.926054 -0.266793 0.266793
vn -0.879543 -0.475784 0.000000
vn -0.617603 -0.556108 -0.556108
vn -0.106388 -0.703085 -0.703085
vn -0.926054 -0.266793 -0.266793
vn -0.106388 0.703085 0.703085
vn -0.926054 0.266793 0.266793
vn -0.879543 0.475784 0.000000
vn -0.079623 0.996796 0.000000
vn -0.617603 0.556108 0.556108
vn -0.730918 0.682424 0.000000
vn -0.926054 0.266793 -0.266793
vn -0.106388 0.703085 -0.703085
vn -0.617603 0.556108 -0.556108
vn -0.879543 0.000000 0.475784
vn -0.079623 0.000000 0.996796
vn -0.730918 0.000000 0.682424
vn -0.879543 0.000000 -0.475784
vn -0.079623 0.000000 -0.996796
vn -0.730918 0.000000 -0.682424
vn -1.000000 0.000000 0.000000
vn 0.730918 -0.682424 0.000000
vn 0.617603 -0.556108 -0.556108
vn 0.730918 0.000000 -0.682424
vn 1.000000 0.000000 0.000000
vn 0.617603 -0.556108 0.556108
vn 0.730918 0.000000 0.682424
vn 0.617603 0.556108 -0.556108
vn 0.730918 0.682424 0.000000
vn 0.617603 0.556108 0.556108
vn 0.106388 -0.703085 -0.703085
vn 0.926054 -0.266793 -0.266793
vn 0.879543 0.000000 -0.475784
vn 0.079623 0.000000 -0.996796
vn 0.926054 0.266793 -0.266793
vn 0.106388 0.703085 -0.703085
vn 0.106388 0.703085 0.703085
vn 0.926054 0.266793 0.266793
vn 0.879543 0.000000 0.475784
vn 0.079623 0.000000 0.996796
vn 0.926054 -0.266793 0.266793
vn 0.106388 -0.703085 0.703085
vn 0.879543 -0.475784 0.000000
vn 0.079623 -0.996796 0.000000
vn 0.079623 0.996796 0.000000
vn 0.879543 0.475784 0.000000
vn 0.703085 -0.106388 0.703085
vn 0.556108 -0.617603 0.556108
vn 0.682424 -0.730918 0.000000
vn 0.996796 -0.079623 0.000000
vn 0.266793 -0.926054 0.266793
vn 0.475784 -0.879543 0.000000
vn 0.556108 -0.617603 -0.556108
vn 0.703085 -0.106388 -0.703085
vn 0.266793 -0.926054 -0.266793
vn -0.703085 -0.106388 0.703085
vn -0.266793 -0.926054 0.266793
vn -0.475784 -0.879543 0.000000
vn -0.996796 -0.079623 0.000000
vn -0.556108 -0.617603 0.556108
vn -0.682424 -0.730918 0.000000
vn -0.266793 -0.926054 -0.266793
vn -0.703085 -0.106388 -0.703085
vn -0.556108 -0.617603 -0.556108
vn 0.000000 -0.879543 0.475784
vn 0.000000 -0.079623 0.996796
vn 0.000000 -0.730918 0.682424
vn 0.000000 -0.879543 -0.475784
vn 0.000000 -0.079623 -0.996796
vn 0.000000 -0.730918 -0.682424
vn 0.000000 -1.000000 0.000000
vn -0.682424 0.000000 -0.730918
vn -0.556108 0.556108 -0.617603
vn 0.000000 0.682424 -0.730918
vn 0.000000 0.000000 -1.000000
vn -0.556108 -0.556108 -0.617603
vn 0.000000 -0.682424 -0.730918
vn 0.556108 0.556108 -0.617603
vn 0.682424 0.000000 -0.730918
vn 0.556108 -0.556108 -0.617603
vn -0.703085 0.703085 -0.106388
vn -0.266793 0.266793 -0.926054
vn 0.000000 0.475784 -0.879543
vn 0.000000 0.996796 -0.079623
vn 0.266793 0.266793 -0.926054
vn 0.703085 0.703085 -0.106388
vn 0.703085 -0.703085 -0.106388
vn 0.266793 -0.266793 -0.926054
vn 0.000000 -0.475784 -0.879543
vn 0.000000 -0.996796 -0.079623
vn -0.266793 -0.266793 -0.926054
vn -0.703085 -0.703085 -0.106388
vn -0.475784 0.000000 -0.879543
vn -0.996796 0.000000 -0.079623
vn 0.996796 0.000000 -0.079623
vn 0.475784 0.000000 -0.879543
vn 0.703085 0.703085 0.106388
vn 0.556108 0.556108 0.617603
vn 0.682424 0.000000 0.730918
vn 0.996796 0.000000 0.079623
vn 0.266793 0.266793 0.926054
vn 0.475784 0.000000 0.879543
vn 0.556108 -0.556108 0.617603
vn 0.703085 -0.703085 0.106388
vn 0.266793 -0.266793 0.926054
vn -0.703085 0.703085 0.106388
vn -0.266793 0.266793 0.926054
vn -0.475784 0.000000 0.879543
vn -0.996796 0.000000 0.079623
vn -0.556108 0.556108 0.617603
vn -0.682424 0.000000 0.730918
vn -0.266793 -0.266793 0.926054
vn -0.703085 -0.703085 0.106388
vn -0.556108 -0.556108 0.617603
vn 0.000000 0.475784 0.879543
vn 0.000000 0.996796 0.079623
vn 0.000000 0.682424 0.730918
vn 0.000000 -0.475784 0.879543
vn 0.000000 -0.996796 0.079623
vn 0.000000 -0.682424 0.730918
vn 0.000000 0.000000 1.000000
vn 0.089206 -0.089206 0.992004
vn -0.577349 0.577349 0.577349
vn -0.707083 0.000000 0.707083
vn 0.179388 0.000000 0.983764
vn -0.577349 -0.577349 0.577349
vn 0.089206 0.089206 0.992004
vn 0.000000 0.179388 0.983764
vn -0.089206 0.089206 0.992004
vn 0.000000 -0.707083 0.707083
vn 0.577349 -0.577349 0.577349
vn -0.179388 0.000000 0.983764
vn -0.089206 -0.089206 0.992004
vn 0.707083 0.000000 0.707083
vn 0.577349 0.577349 0.577349
vn 0.000000 0.707083 0.707083
vn 0.000000 -0.179388 0.983764
vn 0.992004 -0.089206 -0.089206
vn 0.983764 0.000000 -0.179388
vn 0.992004 0.089206 -0.089206
vn 0.992004 -0.089206 0.089206
vn 0.577349 0.577349 -0.577349
vn 0.707083 0.707083 0.000000
vn 0.983764 -0.179388 0.000000
vn 0.992004 0.089206 0.089206
vn 0.577349 -0.577349 -0.577349
vn 0.707083 0.000000 -0.707083
vn 0.983764 0.000000 0.179388
vn 0.707083 -0.707083 0.000000
vn 0.983764 0.179388 0.000000
vn -0.089206 -0.992004 -0.089206
vn 0.000000 -0.983764 -0.179388
vn 0.089206 -0.992004 -0.089206
vn -0.089206 -0.992004 0.089206
vn -0.179388 -0.983764 0.000000
vn 0.089206 -0.992004 0.089206
vn 0.000000 -0.983764 0.179388
vn -0.577349 -0.577349 -0.577349
vn 0.000000 -0.707083 -0.707083
vn -0.707083 -0.707083 0.000000
vn 0.179388 -0.983764 0.000000
vn -0.992004 0.089206 -0.089206
vn -0.983764 0.000000 -0.179388
vn -0.992004 -0.089206 -0.089206
vn -0.992004 0.089206 0.089206
vn -0.983764 0.179388 0.000000
vn -0.992004 -0.089206 0.089206
vn -0.983764 0.000000 0.179388
vn -0.577349 0.577349 -0.577349
vn -0.707083 0.000000 -0.707083
vn -0.707083 0.707083 0.000000
vn -0.983764 -0.179388 0.000000
vn 0.089206 0.992004 0.089206
vn 0.179388 0.983764 0.000000
vn 0.089206 0.992004 -0.089206
vn 0.000000 0.983764 -0.179388
vn -0.089206 0.992004 -0.089206
vn -0.179388 0.983764 0.000000
vn -0.089206 0.992004 0.089206
vn 0.000000 0.707083 -0.707083
vn 0.000000 0.983764 0.179388
vn 0.089206 -0.089206 -0.992004
vn 0.000000 -0.179388 -0.983764
vn -0.089206 -0.089206 -0.992004
vn -0.179388 0.000000 -0.983764
vn -0.089206 0.089206 -0.992004
vn 0.000000 0.179388 -0.983764
vn 0.089206 0.089206 -0.992004
vn 0.179388 0.000000 -0.983764
usemtl Material.001
s 1
f 58//1 1//2 57//3 165//4
f 3//5 58//1 165//4 60//6
f 165//4 57//3 2//7 59//8
f 60//6 165//4 59//8 4//9
usemtl Material
f 61//10 5//11 65//12 166//13
usemtl Material.001
f 1//2 61//10 166//13 57//3
usemtl Material
f 166//13 65//12 6//14 62//15
usemtl Material.001
f 57//3 166//13 62//15 2//7
usemtl Material
f 64//16 8//17 66//18 167//19
usemtl Material.001
f 4//9 64//16 167//19 60//6
usemtl Material
f 167//19 66//18 7//20 63//21
usemtl Material.001
f 60//6 167//19 63//21 3//5
f 61//10 1//2 58//1 168//22
usemtl Material
f 5//11 61//10 168//22 67//23
usemtl Material.001
f 168//22 58//1 3//5 63//21
usemtl Material
f 67//23 168//22 63//21 7//20
usemtl Material.001
f 64//16 4//9 59//8 169//24
usemtl Material
f 8//17 64//16 169//24 68//25
usemtl Material.001
f 169//24 59//8 2//7 62//15
usemtl Material
f 68//25 169//24 62//15 6//14
usemtl Material.001
f 73//26 13//27 78//28 170//29
usemtl Material
f 9//30 73//26 170//29 69//31
usemtl Material.001
f 170//29 78//28 15//32 75//33
usemtl Material
f 69//31 170//29 75//33 11//34
f 74//35 10//36 70//37 171//38
usemtl Material.001
f 14//39 74//35 171//38 79//40
usemtl Material
f 171//38 70//37 12//41 76//42
usemtl Material.001
f 79//40 171//38 76//42 16//43
usemtl Material
f 73//26 9//30 71//44 172//45
usemtl Material.001
f 13//27 73//26 172//45 77//46
usemtl Material
f 172//45 71//44 10//36 74//35
usemtl Material.001
f 77//46 172//45 74//35 14//39
usemtl Material
f 76//42 12//41 72//47 173//48
usemtl Material.001
f 16//43 76//42 173//48 80//49
usemtl Material
f 173//48 72//47 11//34 75//33
usemtl Material.001
f 80//49 173//48 75//33 15//32
f 79//40 16//43 80//49 174//50
f 14//39 79//40 174//50 77//46
f 174//50 80//49 15//32 78//28
f 77//46 174//50 78//28 13//27
f 82//51 17//52 81//53 175//54
f 19//55 82//51 175//54 84//56
f 175//54 81//53 18//57 83//58
f 84//56 175//54 83//58 20//59
usemtl Material
f 85//60 21//61 89//62 176//63
usemtl Material.001
f 17//52 85//60 176//63 81//53
usemtl Material
f 176//63 89//62 22//64 86//65
usemtl Material.001
f 81//53 176//63 86//65 18//57
usemtl Material
f 88//66 24//67 90//68 177//69
usemtl Material.001
f 20//59 88//66 177//69 84//56
usemtl Material
f 177//69 90//68 23//70 87//71
usemtl Material.001
f 84//56 177//69 87//71 19//55
usemtl Material
f 87//71 23//70 91//72 178//73
usemtl Material.001
f 19//55 87//71 178//73 82//51
usemtl Material
f 178//73 91//72 21//61 85//60
usemtl Material.001
f 82//51 178//73 85//60 17//52
f 88//66 20//59 83//58 179//74
usemtl Material
f 24//67 88//66 179//74 92//75
usemtl Material.001
f 179//74 83//58 18//57 86//65
usemtl Material
f 92//75 179//74 86//65 22//64
usemtl Material.001
f 97//76 29//77 102//78 180//79
usemtl Material
f 25//80 97//76 180//79 93//81
usemtl Material.001
f 180//79 102//78 31//82 99//83
usemtl Material
f 93//81 180//79 99//83 27//84
f 98//85 26//86 94//87 181//88
usemtl Material.001
f 30//89 98//85 181//88 103//90
usemtl Material
f 181//88 94//87 28//91 100//92
usemtl Material.001
f 103//90 181//88 100//92 32//93
usemtl Material
f 97//76 25//80 95//94 182//95
usemtl Material.001
f 29//77 97//76 182//95 101//96
usemtl Material
f 182//95 95//94 26//86 98//85
usemtl Material.001
f 101//96 182//95 98//85 30//89
usemtl Material
f 100//92 28//91 96//97 183//98
usemtl Material.001
f 32//93 100//92 183//98 104//99
usemtl Material
f 183//98 96//97 27//84 99//83
usemtl Material.001
f 104//99 183//98 99//83 31//82
f 103//90 32//93 104//99 184//100
f 30//89 103//90 184//100 101//96
f 184//100 104//99 31//82 102//78
f 101//96 184//100 102//78 29//77
f 106//101 33//102 105//103 185//104
f 35//105 106//101 185//104 108//106
f 185//104 105//103 34//107 107//108
f 108//106 185//104 107//108 36//109
usemtl Material
f 109//110 37//111 113//112 186//113
usemtl Material.001
f 33//102 109//110 186//113 105//103
usemtl Material
f 186//113 113//112 38//114 110//115
usemtl Material.001
f 105//103 186//113 110//115 34//107
usemtl Material
f 112//116 40//117 114//118 187//119
usemtl Material.001
f 36//109 112//116 187//119 108//106
usemtl Material
f 187//119 114//118 39//120 111//121
usemtl Material.001
f 108//106 187//119 111//121 35//105
usemtl Material
f 111//121 39//120 115//122 188//123
usemtl Material.001
f 35//105 111//121 188//123 106//101
usemtl Material
f 188//123 115//122 37//111 109//110
usemtl Material.001
f 106//101 188//123 109//110 33//102
f 112//116 36//109 107//108 189//124
usemtl Material
f 40//117 112//116 189//124 116//125
usemtl Material.001
f 189//124 107//108 34//107 110//115
usemtl Material
f 116//125 189//124 110//115 38//114
usemtl Material.001
f 121//126 45//127 126//128 190//129
usemtl Material
f 41//130 121//126 190//129 117//131
usemtl Material.001
f 190//129 126//128 47//132 123//133
usemtl Material
f 117//131 190//129 123//133 43//134
f 122//135 42//136 118//137 191//138
usemtl Material.001
f 46//139 122//135 191//138 127//140
usemtl Material
f 191//138 118//137 44//141 124//142
usemtl Material.001
f 127//140 191//138 124//142 48//143
usemtl Material
f 121//126 41//130 119//144 192//145
usemtl Material.001
f 45//127 121//126 192//145 125//146
usemtl Material
f 192//145 119//144 42//136 122//135
usemtl Material.001
f 125//146 192//145 122//135 46//139
usemtl Material
f 124//142 44//141 120//147 193//148
usemtl Material.001
f 48//143 124//142 193//148 128//149
usemtl Material
f 193//148 120//147 43//134 123//133
usemtl Material.001
f 128//149 193//148 123//133 47//132
f 127//140 48//143 128//149 194//150
f 46//139 127//140 194//150 125//146
f 194//150 128//149 47//132 126//128
f 125//146 194//150 126//128 45//127
f 141//151 56//152 135//153 195//154
usemtl Material
f 42//136 141//151 195//154 118//137
usemtl Material.001
f 195//154 135//153 55//155 140//156
usemtl Material
f 118//137 195//154 140//156 44//141
f 120//147 44//141 140//156 196//157
f 43//134 120//147 196//157 142//158
usemtl Material.001
f 196//157 140//156 55//155 134//159
f 142//158 196//157 134//159 54//160
usemtl Material
f 117//131 43//134 142//158 197//161
f 41//130 117//131 197//161 143//162
usemtl Material.001
f 197//161 142//158 54//160 133//163
f 143//162 197//161 133//163 53//164
f 143//162 53//164 136//165 198//166
usemtl Material
f 41//130 143//162 198//166 119//144
usemtl Material.001
f 198//166 136//165 56//152 141//151
usemtl Material
f 119//144 198//166 141//151 42//136
f 90//68 24//67 144//167 199//168
f 23//70 90//68 199//168 145//169
usemtl Material.001
f 199//168 144//167 53//164 133//163
f 145//169 199//168 133//163 54//160
f 146//170 49//171 138//172 200//173
usemtl Material
f 22//64 146//170 200//173 92//75
usemtl Material.001
f 200//173 138//172 53//164 144//167
usemtl Material
f 92//75 200//173 144//167 24//67
usemtl Material.001
f 147//174 50//175 130//176 201//177
usemtl Material
f 21//61 147//174 201//177 89//62
usemtl Material.001
f 201//177 130//176 49//171 146//170
usemtl Material
f 89//62 201//177 146//170 22//64
usemtl Material.001
f 145//169 54//160 137//178 202//179
usemtl Material
f 23//70 145//169 202//179 91//72
usemtl Material.001
f 202//179 137//178 50//175 147//174
usemtl Material
f 91//72 202//179 147//174 21//61
usemtl Material.001
f 148//180 54//160 134//159 203//181
usemtl Material
f 25//80 148//180 203//181 95//94
usemtl Material.001
f 203//181 134//159 55//155 149//182
usemtl Material
f 95//94 203//181 149//182 26//86
f 93//81 27//84 150//183 204//184
f 25//80 93//81 204//184 148//180
usemtl Material.001
f 204//184 150//183 50//175 137//178
f 148//180 204//184 137//178 54//160
usemtl Material
f 96//97 28//91 151//185 205//186
f 27//84 96//97 205//186 150//183
usemtl Material.001
f 205//186 151//185 51//187 129//188
f 150//183 205//186 129//188 50//175
f 149//182 55//155 139//189 206//190
usemtl Material
f 26//86 149//182 206//190 94//87
usemtl Material.001
f 206//190 139//189 51//187 151//185
usemtl Material
f 94//87 206//190 151//185 28//91
usemtl Material.001
f 152//191 55//155 135//153 207//192
usemtl Material
f 9//30 152//191 207//192 71//44
usemtl Material.001
f 207//192 135//153 56//152 153//193
usemtl Material
f 71//44 207//192 153//193 10//36
f 69//31 11//34 154//194 208//195
f 9//30 69//31 208//195 152//191
usemtl Material.001
f 208//195 154//194 51//187 139//189
f 152//191 208//195 139//189 55//155
usemtl Material
f 72//47 12//41 155//196 209//197
f 11//34 72//47 209//197 154//194
usemtl Material.001
f 209//197 155//196 52//198 132//199
f 154//194 209//197 132//199 51//187
f 153//193 56//152 156//200 210//201
usemtl Material
f 10//36 153//193 210//201 70//37
usemtl Material.001
f 210//201 156//200 52//198 155//196
usemtl Material
f 70//37 210//201 155//196 12//41
usemtl Material.001
f 157//202 52//198 156//200 211//203
usemtl Material
f 6//14 157//202 211//203 68//25
usemtl Material.001
f 211//203 156//200 56//152 158//204
usemtl Material
f 68//25 211//203 158//204 8//17
f 66//18 8//17 158//204 212//205
f 7//20 66//18 212//205 159//206
usemtl Material.001
f 212//205 158//204 56//152 136//165
f 159//206 212//205 136//165 53//164
usemtl Material
f 67//23 7//20 159//206 213//207
f 5//11 67//23 213//207 160//208
usemtl Material.001
f 213//207 159//206 53//164 138//172
f 160//208 213//207 138//172 49//171
f 160//208 49//171 131//209 214//210
usemtl Material
f 5//11 160//208 214//210 65//12
usemtl Material.001
f 214//210 131//209 52//198 157//202
usemtl Material
f 65//12 214//210 157//202 6//14
usemtl Material.001
f 162//211 52//198 131//209 215//212
usemtl Material
f 37//111 162//211 215//212 113//112
usemtl Material.001
f 215//212 131//209 49//171 161//213
usemtl Material
f 113//112 215//212 161//213 38//114
usemtl Material.001
f 161//213 49//171 130//176 216//214
usemtl Material
f 38//114 161//213 216//214 116//125
usemtl Material.001
f 216//214 130//176 50//175 163//215
usemtl Material
f 116//125 216//214 163//215 40//117
f 114//118 40//117 163//215 217//216
f 39//120 114//118 217//216 164//217
usemtl Material.001
f 217//216 163//215 50//175 129//188
f 164//217 217//216 129//188 51//187
usemtl Material
f 115//122 39//120 164//217 218//218
f 37//111 115//122 218//218 162//211
usemtl Material.001
f 218//218 164//217 51//187 132//199
f 162//211 218//218 132//199 52//198
